<svg width="25" height="24" viewBox="0 0 25 24" fill="none" xmlns="http://www.w3.org/2000/svg">
<path fill-rule="evenodd" clip-rule="evenodd" d="M9.98888 7.62821C11.9154 5.77851 15.0238 5.77608 16.9423 7.6299L16.944 7.6316C18.8582 9.49316 18.8608 12.4967 16.9423 14.3506L14.6448 16.5706C13.5345 17.6435 11.7287 17.6435 10.6184 16.5706C9.50807 15.4977 9.50807 13.7528 10.6184 12.6799L12.0776 11.2699C12.3807 10.977 12.8722 10.977 13.1753 11.2699C13.4784 11.5628 13.4784 12.0377 13.1753 12.3306L11.716 13.7406C11.716 13.7406 11.716 13.7406 11.716 13.7406C11.212 14.2277 11.212 15.0228 11.716 15.5099C12.2201 15.997 13.043 15.997 13.5471 15.5099L15.8446 13.2899C17.1547 12.024 17.1575 9.96819 15.8437 8.6897C14.5336 7.42465 12.4066 7.42225 11.0839 8.69146C11.0836 8.69173 11.0833 8.69199 11.083 8.69226L8.58038 11.1105C7.49675 12.1577 7.49675 13.8528 8.58038 14.8999C8.88349 15.1928 8.88349 15.6677 8.58038 15.9606C8.27727 16.2534 7.78583 16.2534 7.48272 15.9606C5.79287 14.3277 5.79287 11.6828 7.48272 10.0499L9.98888 7.62821Z" fill="currentColor"/>
<path fill-rule="evenodd" clip-rule="evenodd" d="M12.4185 2.75C7.13162 2.75 2.84578 6.89137 2.84578 12C2.84578 17.1086 7.13162 21.25 12.4185 21.25C17.7053 21.25 21.9911 17.1086 21.9911 12C21.9911 6.89137 17.7053 2.75 12.4185 2.75ZM1.29346 12C1.29346 6.06294 6.27429 1.25 12.4185 1.25C18.5626 1.25 23.5435 6.06294 23.5435 12C23.5435 17.9371 18.5626 22.75 12.4185 22.75C6.27429 22.75 1.29346 17.9371 1.29346 12Z" fill="currentColor"/>
</svg>
