<svg width="32" height="32" viewBox="0 0 32 32" fill="none" xmlns="http://www.w3.org/2000/svg">
<path fill-rule="evenodd" clip-rule="evenodd" d="M22.5622 13.5028C22.0102 13.5028 21.5569 13.0548 21.5569 12.5028C21.5569 11.9508 21.9982 11.5028 22.5502 11.5028H22.5622C23.1142 11.5028 23.5622 11.9508 23.5622 12.5028C23.5622 13.0548 23.1142 13.5028 22.5622 13.5028ZM16.0009 22.3615C13.1369 22.3615 10.8075 20.0308 10.8075 17.1668C10.8075 14.3041 13.1369 11.9748 16.0009 11.9748C18.8649 11.9748 21.1942 14.3041 21.1942 17.1668C21.1942 20.0308 18.8649 22.3615 16.0009 22.3615ZM23.4929 8.00413C23.2675 7.93346 22.9395 7.78546 22.6635 7.4828C22.5489 7.35746 22.3942 7.04413 22.2449 6.7428C21.8422 5.92813 21.2915 4.81346 20.1835 4.3468C18.7595 3.74946 13.2929 3.7468 11.8222 4.34413C10.7289 4.79346 10.1715 5.91346 9.76486 6.7308C9.61152 7.03746 9.45419 7.3548 9.33686 7.4828C9.06219 7.7868 8.73419 7.93346 8.53019 7.9988C4.13419 9.2148 3.32886 12.0721 3.32886 17.2588C3.32886 24.7575 5.15819 28.1028 16.0009 28.1028C26.8422 28.1028 28.6715 24.7575 28.6715 17.2588C28.6715 12.0721 27.8675 9.2148 23.4929 8.00413Z" fill="#131420"/>
<path fill-rule="evenodd" clip-rule="evenodd" d="M16.001 13.9741C14.2397 13.9741 12.8077 15.4061 12.8077 17.1675C12.8077 18.9288 14.2397 20.3608 16.001 20.3608C17.7624 20.3608 19.1944 18.9288 19.1944 17.1675C19.1944 15.4061 17.7624 13.9741 16.001 13.9741Z" fill="#131420"/>
</svg>
