<svg width="24" height="24" viewBox="0 0 24 24" fill="none" xmlns="http://www.w3.org/2000/svg">
<path fill-rule="evenodd" clip-rule="evenodd" d="M14.9395 13.1314H16.5375V11.6314H14.9395V13.1314ZM11.2045 13.1314H12.8035V11.6314H11.2045V13.1314ZM7.47049 13.1314H9.06949V11.6314H7.47049V13.1314ZM18.9055 5.11941C17.0705 3.28441 14.6295 2.27441 12.0295 2.27441C9.43049 2.27441 6.98749 3.28541 5.15249 5.12041C3.31249 6.96041 2.30049 9.40441 2.30249 12.0054C2.30549 15.3564 2.25449 21.1994 2.25449 21.1994L2.25049 21.7084L2.75849 21.7044C2.81649 21.7034 8.56749 21.6524 11.8185 21.7234C11.8925 21.7244 11.9655 21.7254 12.0395 21.7254C14.6325 21.7254 17.0635 20.7184 18.9055 18.8764C22.6975 15.0834 22.6975 8.91241 18.9055 5.11941Z" fill="currentColor"/>
</svg>
