<svg width="25" height="25" viewBox="0 0 25 25" fill="none" xmlns="http://www.w3.org/2000/svg">
<path fill-rule="evenodd" clip-rule="evenodd" d="M19.3498 10.2015C19.3498 9.92554 19.1258 9.70154 18.8498 9.70154H5.65378C5.37678 9.70154 5.15378 9.92554 5.15378 10.2015C5.15378 11.1985 5.13578 12.1275 5.11878 12.9885C5.04478 16.7375 4.99578 19.2145 6.51078 20.7595C7.58678 21.8565 9.35378 22.3465 12.2408 22.3465C15.1308 22.3465 16.9008 21.8555 17.9798 20.7565C19.5018 19.2045 19.4538 16.7155 19.3828 12.9455C19.3668 12.0965 19.3498 11.1815 19.3498 10.2015Z" fill="currentColor"/>
<path fill-rule="evenodd" clip-rule="evenodd" d="M20.3258 6.37833H16.1848C16.1438 5.72433 15.9628 4.80233 15.3118 4.05433C14.6238 3.26333 13.5938 2.86133 12.2498 2.86133C10.9068 2.86133 9.87678 3.26333 9.18878 4.05433C8.53778 4.80233 8.35578 5.72433 8.31478 6.37833H4.17578C3.76178 6.37833 3.42578 6.71433 3.42578 7.12833C3.42578 7.54233 3.76178 7.87833 4.17578 7.87833H20.3258C20.7398 7.87833 21.0758 7.54233 21.0758 7.12833C21.0758 6.71433 20.7398 6.37833 20.3258 6.37833Z" fill="currentColor"/>
</svg>
