<svg width="270" height="6" viewBox="0 0 270 6" fill="none" xmlns="http://www.w3.org/2000/svg">
<path d="M263.833 3C263.833 4.47276 265.027 5.66667 266.5 5.66667C267.973 5.66667 269.167 4.47276 269.167 3C269.167 1.52724 267.973 0.333333 266.5 0.333333C265.027 0.333333 263.833 1.52724 263.833 3ZM0.613249 3L3.5 5.88675L6.38675 3L3.5 0.113249L0.613249 3ZM3.5 3V3.5H5.49242V3V2.5H3.5V3ZM9.47727 3V3.5H13.4621V3V2.5H9.47727V3ZM17.447 3V3.5H21.4318V3V2.5H17.447V3ZM25.4167 3V3.5H29.4015V3V2.5H25.4167V3ZM33.3864 3V3.5H37.3712V3V2.5H33.3864V3ZM41.3561 3V3.5H45.3409V3V2.5H41.3561V3ZM49.3258 3V3.5H53.3106V3V2.5H49.3258V3ZM57.2955 3V3.5H61.2803V3V2.5H57.2955V3ZM65.2651 3V3.5H69.25V3V2.5H65.2651V3ZM73.2348 3V3.5H77.2197V3V2.5H73.2348V3ZM81.2045 3V3.5H85.1894V3V2.5H81.2045V3ZM89.1742 3V3.5H93.1591V3V2.5H89.1742V3ZM97.1439 3V3.5H101.129V3V2.5H97.1439V3ZM105.114 3V3.5H109.098V3V2.5H105.114V3ZM113.083 3V3.5H117.068V3V2.5H113.083V3ZM121.053 3V3.5H125.038V3V2.5H121.053V3ZM129.023 3V3.5H133.008V3V2.5H129.023V3ZM136.992 3V3.5H140.977V3V2.5H136.992V3ZM144.962 3V3.5H148.947V3V2.5H144.962V3ZM152.932 3V3.5H156.917V3V2.5H152.932V3ZM160.902 3V3.5H164.886V3V2.5H160.902V3ZM168.871 3V3.5H172.856V3V2.5H168.871V3ZM176.841 3V3.5H180.826V3V2.5H176.841V3ZM184.811 3V3.5H188.795V3V2.5H184.811V3ZM192.78 3V3.5H196.765V3V2.5H192.78V3ZM200.75 3V3.5H204.735V3V2.5H200.75V3ZM208.72 3V3.5H212.705V3V2.5H208.72V3ZM216.689 3V3.5H220.674V3V2.5H216.689V3ZM224.659 3V3.5H228.644V3V2.5H224.659V3ZM232.629 3V3.5H236.614V3V2.5H232.629V3ZM240.598 3V3.5H244.583V3V2.5H240.598V3ZM248.568 3V3.5H252.553V3V2.5H248.568V3ZM256.538 3V3.5H260.523V3V2.5H256.538V3ZM264.508 3V3.5H266.5V3V2.5H264.508V3Z" fill="#E8E9FF"/>
</svg>
