<svg width="20" height="20" viewBox="0 0 20 20" fill="none" xmlns="http://www.w3.org/2000/svg">
<path d="M0 10C0 4.47715 4.47715 0 10 0C15.5228 0 20 4.47715 20 10C20 15.5228 15.5228 20 10 20C4.47715 20 0 15.5228 0 10Z" fill="#5E60E5"/>
<path d="M4.74927 13.1855V14.9588C4.74927 15.1221 4.8776 15.2505 5.04093 15.2505H6.81427C6.8901 15.2505 6.96593 15.2213 7.01843 15.163L13.3884 8.79882L11.2009 6.61132L4.83677 12.9755C4.77843 13.0338 4.74927 13.1038 4.74927 13.1855Z" fill="white"/>
<path d="M15.0801 6.28465L13.7151 4.91965C13.4876 4.69215 13.1201 4.69215 12.8926 4.91965L11.8251 5.98715L14.0126 8.17465L15.0801 7.10715C15.3076 6.87965 15.3076 6.51215 15.0801 6.28465Z" fill="white"/>
</svg>
