<svg width="20" height="20" viewBox="0 0 20 20" fill="none" xmlns="http://www.w3.org/2000/svg">
<path fill-rule="evenodd" clip-rule="evenodd" d="M10.0001 7.64185C8.69525 7.64185 7.64173 8.69536 7.64173 10.0002C7.64173 10.4255 7.75334 10.8223 7.95031 11.1661L11.166 7.95042C10.8222 7.75345 10.4254 7.64185 10.0001 7.64185ZM6.39172 10.0002C6.39172 8.005 8.00489 6.39185 10.0001 6.39185C10.9983 6.39185 11.8968 6.79638 12.5504 7.4499C12.7944 7.69398 12.7944 8.08971 12.5504 8.33379L8.33367 12.5505C8.0896 12.7945 7.69387 12.7945 7.44979 12.5505C6.79626 11.8969 6.39172 10.9984 6.39172 10.0002Z" fill="currentColor"/>
<path fill-rule="evenodd" clip-rule="evenodd" d="M1.88124 7.50587C3.87368 4.3739 6.79337 2.4834 10 2.4834C11.8747 2.4834 13.6713 3.13641 15.2264 4.30943C15.502 4.51729 15.5569 4.90919 15.349 5.18477C15.1412 5.46034 14.7493 5.51523 14.4737 5.30737C13.1122 4.28039 11.5754 3.7334 10 3.7334C7.32348 3.7334 4.75992 5.3094 2.93568 8.17718L2.93516 8.178C2.63967 8.64093 2.47083 9.3036 2.47083 10.0042C2.47083 10.7049 2.63967 11.3675 2.93516 11.8305L2.93545 11.8309C3.56359 12.8169 4.29093 13.6609 5.0742 14.3345C5.33591 14.5596 5.36561 14.9542 5.14054 15.2159C4.91547 15.4776 4.52086 15.5073 4.25915 15.2823C3.37574 14.5225 2.56974 13.5833 1.88121 12.5026C1.4269 11.7906 1.22083 10.8784 1.22083 10.0042C1.22083 9.13003 1.42691 8.21788 1.88124 7.50587Z" fill="currentColor"/>
<path fill-rule="evenodd" clip-rule="evenodd" d="M16.3167 6.12141C16.5857 5.90507 16.9791 5.94773 17.1954 6.2167C17.5153 6.61442 17.8296 7.0418 18.1195 7.49853C18.5734 8.2104 18.7793 9.12211 18.7793 9.99592C18.7793 10.8701 18.5732 11.7823 18.1188 12.4943C16.1264 15.6263 13.2067 17.5168 10.0001 17.5168C8.88627 17.5168 7.79573 17.2812 6.77417 16.8511C6.45604 16.7172 6.30673 16.3507 6.44068 16.0326C6.57463 15.7144 6.94111 15.5651 7.25924 15.6991C8.13769 16.0689 9.06383 16.2668 10.0001 16.2668C12.6766 16.2668 15.2402 14.6908 17.0644 11.823L17.0649 11.8221C17.3604 11.3592 17.5293 10.6965 17.5293 9.99592C17.5293 9.29529 17.3604 8.63262 17.0649 8.16969L17.064 8.16831C16.8039 7.75838 16.5182 7.36909 16.2214 7.00014C16.0051 6.73118 16.0477 6.33776 16.3167 6.12141Z" fill="currentColor"/>
<path fill-rule="evenodd" clip-rule="evenodd" d="M13.038 9.96872C13.3775 10.0313 13.6019 10.3572 13.5393 10.6967C13.2757 12.1266 12.1179 13.2843 10.688 13.548C10.3486 13.6106 10.0227 13.3862 9.96006 13.0467C9.89746 12.7072 10.1219 12.3813 10.4614 12.3187C11.3815 12.1491 12.1404 11.3901 12.3101 10.47C12.3727 10.1306 12.6986 9.90613 13.038 9.96872Z" fill="currentColor"/>
<path fill-rule="evenodd" clip-rule="evenodd" d="M8.33366 11.6665C8.57774 11.9105 8.57774 12.3063 8.33366 12.5503L2.10863 18.7753C1.86455 19.0194 1.46882 19.0194 1.22475 18.7753C0.980667 18.5313 0.980667 18.1355 1.22475 17.8915L7.44977 11.6665C7.69385 11.4224 8.08958 11.4224 8.33366 11.6665Z" fill="currentColor"/>
<path fill-rule="evenodd" clip-rule="evenodd" d="M18.7748 1.22481C19.0188 1.46888 19.0188 1.86461 18.7748 2.10869L12.5497 8.33369C12.3057 8.57777 11.9099 8.57777 11.6658 8.33369C11.4218 8.08961 11.4218 7.69388 11.6658 7.44981L17.8909 1.22481C18.135 0.980729 18.5307 0.980729 18.7748 1.22481Z" fill="currentColor"/>
</svg>
