<svg width="25" height="25" viewBox="0 0 25 25" fill="none" xmlns="http://www.w3.org/2000/svg">
<path fill-rule="evenodd" clip-rule="evenodd" d="M12.248 9.71289C10.6822 9.71289 9.41797 10.9771 9.41797 12.5429C9.41797 14.1087 10.6822 15.3729 12.248 15.3729C13.8138 15.3729 15.078 14.1087 15.078 12.5429C15.078 10.9771 13.8138 9.71289 12.248 9.71289ZM7.91797 12.5429C7.91797 10.1487 9.85375 8.21289 12.248 8.21289C14.6422 8.21289 16.578 10.1487 16.578 12.5429C16.578 14.9371 14.6422 16.8729 12.248 16.8729C9.85375 16.8729 7.91797 14.9371 7.91797 12.5429Z" fill="currentColor"/>
<path fill-rule="evenodd" clip-rule="evenodd" d="M2.50734 9.53966C4.89826 5.7813 8.40186 3.5127 12.2498 3.5127C16.098 3.5127 19.6017 5.78149 21.9927 9.54015C22.5376 10.3945 22.7848 11.4889 22.7848 12.5377C22.7848 13.5865 22.5376 14.6809 21.9927 15.5352C19.6017 19.2939 16.098 21.5627 12.2498 21.5627C8.4017 21.5627 4.89795 19.2939 2.50703 15.5352C1.96205 14.6809 1.71484 13.5865 1.71484 12.5377C1.71484 11.4887 1.96214 10.3941 2.50734 9.53966ZM12.2498 5.0127C9.03799 5.0127 5.96174 6.9039 3.77266 10.3452L3.77204 10.3462C3.41745 10.9017 3.21484 11.6969 3.21484 12.5377C3.21484 13.3784 3.41745 14.1737 3.77204 14.7292L3.77266 14.7302C5.96174 18.1715 9.03799 20.0627 12.2498 20.0627C15.4617 20.0627 18.538 18.1715 20.727 14.7302L20.7277 14.7292C21.0822 14.1737 21.2848 13.3784 21.2848 12.5377C21.2848 11.6969 21.0822 10.9017 20.7277 10.3462L20.727 10.3452C18.538 6.9039 15.4617 5.0127 12.2498 5.0127Z" fill="currentColor"/>
</svg>
