<svg width="19" height="18" viewBox="0 0 19 18" fill="none" xmlns="http://www.w3.org/2000/svg">
<path d="M17.3758 9.17493C17.3758 8.52743 17.3222 8.05493 17.2061 7.56494H9.6615V10.4874H14.09C14.0008 11.2137 13.5186 12.3074 12.4472 13.0424L12.4322 13.1402L14.8176 14.9513L14.9829 14.9674C16.5007 13.5937 17.3758 11.5724 17.3758 9.17493Z" fill="#4285F4"/>
<path d="M9.66098 16.8749C11.8306 16.8749 13.652 16.1749 14.9824 14.9674L12.4467 13.0424C11.7681 13.5061 10.8574 13.8299 9.66098 13.8299C7.53601 13.8299 5.73246 12.4561 5.08954 10.5574L4.9953 10.5652L2.51486 12.4465L2.48242 12.5349C3.80383 15.1074 6.51811 16.8749 9.66098 16.8749Z" fill="#34A853"/>
<path d="M5.09004 10.5576C4.9204 10.0676 4.82223 9.54257 4.82223 9.0001C4.82223 8.45756 4.9204 7.93258 5.08112 7.44259L5.07662 7.33823L2.56509 5.42676L2.48291 5.46506C1.9383 6.53258 1.62579 7.73135 1.62579 9.0001C1.62579 10.2688 1.9383 11.4676 2.48291 12.5351L5.09004 10.5576Z" fill="#FBBC05"/>
<path d="M9.66103 4.16998C11.1699 4.16998 12.1878 4.80873 12.7682 5.34251L15.036 3.1725C13.6432 1.90375 11.8306 1.125 9.66103 1.125C6.51814 1.125 3.80384 2.89249 2.48242 5.46497L5.08063 7.44249C5.73248 5.54375 7.53604 4.16998 9.66103 4.16998Z" fill="#EB4335"/>
</svg>
