<svg width="68" height="68" viewBox="0 0 68 68" fill="none" xmlns="http://www.w3.org/2000/svg">
<g filter="url(#filter0_d_16438_8728)">
<g clip-path="url(#clip0_16438_8728)">
<path d="M12 26C12 13.8497 21.8497 4 34 4C46.1503 4 56 13.8497 56 26C56 38.1503 46.1503 48 34 48C21.8497 48 12 38.1503 12 26Z" fill="#5E60E5"/>
<path fill-rule="evenodd" clip-rule="evenodd" d="M34 19.25C30.2721 19.25 27.25 22.2721 27.25 26C27.25 29.7279 30.2721 32.75 34 32.75C37.7279 32.75 40.75 29.7279 40.75 26C40.75 22.2721 37.7279 19.25 34 19.25ZM25.75 26C25.75 21.4437 29.4437 17.75 34 17.75C38.5563 17.75 42.25 21.4437 42.25 26C42.25 30.5563 38.5563 34.25 34 34.25C29.4437 34.25 25.75 30.5563 25.75 26Z" fill="white"/>
<path fill-rule="evenodd" clip-rule="evenodd" d="M34 23.75C32.7574 23.75 31.75 24.7574 31.75 26C31.75 27.2426 32.7574 28.25 34 28.25C35.2426 28.25 36.25 27.2426 36.25 26C36.25 24.7574 35.2426 23.75 34 23.75ZM30.25 26C30.25 23.9289 31.9289 22.25 34 22.25C36.0711 22.25 37.75 23.9289 37.75 26C37.75 28.0711 36.0711 29.75 34 29.75C31.9289 29.75 30.25 28.0711 30.25 26Z" fill="white"/>
<path fill-rule="evenodd" clip-rule="evenodd" d="M34 15.25C34.4142 15.25 34.75 15.5858 34.75 16V18C34.75 18.4142 34.4142 18.75 34 18.75C33.5858 18.75 33.25 18.4142 33.25 18V16C33.25 15.5858 33.5858 15.25 34 15.25Z" fill="white"/>
<path fill-rule="evenodd" clip-rule="evenodd" d="M23.25 26C23.25 25.5858 23.5858 25.25 24 25.25H26C26.4142 25.25 26.75 25.5858 26.75 26C26.75 26.4142 26.4142 26.75 26 26.75H24C23.5858 26.75 23.25 26.4142 23.25 26Z" fill="white"/>
<path fill-rule="evenodd" clip-rule="evenodd" d="M34 33.25C34.4142 33.25 34.75 33.5858 34.75 34V36C34.75 36.4142 34.4142 36.75 34 36.75C33.5858 36.75 33.25 36.4142 33.25 36V34C33.25 33.5858 33.5858 33.25 34 33.25Z" fill="white"/>
<path fill-rule="evenodd" clip-rule="evenodd" d="M41.25 26C41.25 25.5858 41.5858 25.25 42 25.25H44C44.4142 25.25 44.75 25.5858 44.75 26C44.75 26.4142 44.4142 26.75 44 26.75H42C41.5858 26.75 41.25 26.4142 41.25 26Z" fill="white"/>
</g>
<path d="M34 4.5C45.8741 4.5 55.5 14.1259 55.5 26C55.5 37.8741 45.8741 47.5 34 47.5C22.1259 47.5 12.5 37.8741 12.5 26C12.5 14.1259 22.1259 4.5 34 4.5Z" stroke="white"/>
</g>
<defs>
<filter id="filter0_d_16438_8728" x="0" y="0" width="68" height="68" filterUnits="userSpaceOnUse" color-interpolation-filters="sRGB">
<feFlood flood-opacity="0" result="BackgroundImageFix"/>
<feColorMatrix in="SourceAlpha" type="matrix" values="0 0 0 0 0 0 0 0 0 0 0 0 0 0 0 0 0 0 127 0" result="hardAlpha"/>
<feOffset dy="8"/>
<feGaussianBlur stdDeviation="6"/>
<feColorMatrix type="matrix" values="0 0 0 0 0 0 0 0 0 0 0 0 0 0 0 0 0 0 0.12 0"/>
<feBlend mode="normal" in2="BackgroundImageFix" result="effect1_dropShadow_16438_8728"/>
<feBlend mode="normal" in="SourceGraphic" in2="effect1_dropShadow_16438_8728" result="shape"/>
</filter>
<clipPath id="clip0_16438_8728">
<path d="M12 26C12 13.8497 21.8497 4 34 4C46.1503 4 56 13.8497 56 26C56 38.1503 46.1503 48 34 48C21.8497 48 12 38.1503 12 26Z" fill="white"/>
</clipPath>
</defs>
</svg>
