<svg width="28" height="29" viewBox="0 0 28 29" fill="none" xmlns="http://www.w3.org/2000/svg">
<path fill-rule="evenodd" clip-rule="evenodd" d="M2.625 8.66699C2.625 8.18374 3.01675 7.79199 3.5 7.79199H24.5C24.9832 7.79199 25.375 8.18374 25.375 8.66699C25.375 9.15024 24.9832 9.54199 24.5 9.54199H3.5C3.01675 9.54199 2.625 9.15024 2.625 8.66699Z" fill="currentColor"/>
<path fill-rule="evenodd" clip-rule="evenodd" d="M2.625 14.5C2.625 14.0168 3.01675 13.625 3.5 13.625H24.5C24.9832 13.625 25.375 14.0168 25.375 14.5C25.375 14.9832 24.9832 15.375 24.5 15.375H3.5C3.01675 15.375 2.625 14.9832 2.625 14.5Z" fill="currentColor"/>
<path fill-rule="evenodd" clip-rule="evenodd" d="M2.625 20.334C2.625 19.8507 3.01675 19.459 3.5 19.459H24.5C24.9832 19.459 25.375 19.8507 25.375 20.334C25.375 20.8172 24.9832 21.209 24.5 21.209H3.5C3.01675 21.209 2.625 20.8172 2.625 20.334Z" fill="currentColor"/>
</svg>
