<svg width="25" height="25" viewBox="0 0 25 25" fill="none" xmlns="http://www.w3.org/2000/svg">
<path fill-rule="evenodd" clip-rule="evenodd" d="M11.7337 1.81208C12.7691 1.7878 13.8461 2.05087 14.7001 2.6487L20.8788 6.97783C20.8786 6.97767 20.8791 6.97798 20.8788 6.97783C21.4984 7.40988 22.0207 8.07598 22.3861 8.77607C22.7517 9.47645 23 10.2859 23 11.0431V18.3231C23 21.0462 20.7754 23.2831 18.04 23.2831H6.46C3.72347 23.2831 1.5 21.045 1.5 18.3131V10.9031C1.5 10.1927 1.72441 9.42364 2.05418 8.75151C2.384 8.0793 2.85552 7.42997 3.41901 6.99153L8.80901 2.79153C9.63375 2.15007 10.6982 1.83636 11.7337 1.81208ZM9.73046 3.97514C9.73037 3.97521 9.73054 3.97507 9.73046 3.97514L4.34099 8.17473C4.00471 8.43627 3.6609 8.88216 3.40082 9.41224C3.14059 9.94261 3 10.4836 3 10.9031V18.3131C3 20.2212 4.55653 21.7831 6.46 21.7831H18.04C19.9446 21.7831 21.5 20.2201 21.5 18.3231V11.0431C21.5 10.5903 21.3433 10.0198 21.0564 9.47019C20.7695 8.92052 20.3913 8.46639 20.0212 8.20843L20.0196 8.20736L13.8399 3.87755C13.8398 3.87749 13.84 3.87761 13.8399 3.87755C13.294 3.4955 12.5458 3.29345 11.7688 3.31167C10.9919 3.32989 10.2557 3.56672 9.73046 3.97514Z" fill="currentColor"/>
<path fill-rule="evenodd" clip-rule="evenodd" d="M12.25 14.7832C12.6642 14.7832 13 15.119 13 15.5332V18.5332C13 18.9474 12.6642 19.2832 12.25 19.2832C11.8358 19.2832 11.5 18.9474 11.5 18.5332V15.5332C11.5 15.119 11.8358 14.7832 12.25 14.7832Z" fill="currentColor"/>
</svg>
