<svg width="25" height="25" viewBox="0 0 25 25" fill="none" xmlns="http://www.w3.org/2000/svg">
<path d="M15.25 23.3535H9.25C3.82 23.3535 1.5 21.0335 1.5 15.6035V9.60352C1.5 4.17352 3.82 1.85352 9.25 1.85352H15.25C20.68 1.85352 23 4.17352 23 9.60352V15.6035C23 21.0335 20.68 23.3535 15.25 23.3535ZM9.25 3.35352C4.64 3.35352 3 4.99352 3 9.60352V15.6035C3 20.2135 4.64 21.8535 9.25 21.8535H15.25C19.86 21.8535 21.5 20.2135 21.5 15.6035V9.60352C21.5 4.99352 19.86 3.35352 15.25 3.35352H9.25Z" fill="currentColor"/>
<path d="M12.25 16.8535C9.91 16.8535 8 14.9435 8 12.6035C8 10.2635 9.91 8.35352 12.25 8.35352C14.59 8.35352 16.5 10.2635 16.5 12.6035C16.5 14.9435 14.59 16.8535 12.25 16.8535ZM12.25 9.85352C10.73 9.85352 9.5 11.0835 9.5 12.6035C9.5 14.1235 10.73 15.3535 12.25 15.3535C13.77 15.3535 15 14.1235 15 12.6035C15 11.0835 13.77 9.85352 12.25 9.85352Z" fill="currentColor"/>
<path d="M17.25 8.10342C17.12 8.10342 16.99 8.07342 16.87 8.02342C16.75 7.97342 16.64 7.90342 16.54 7.81342C16.45 7.71342 16.37 7.60342 16.32 7.48342C16.27 7.36342 16.25 7.23342 16.25 7.10342C16.25 6.97342 16.27 6.84342 16.32 6.72342C16.38 6.59342 16.45 6.49342 16.54 6.39342C16.59 6.35342 16.64 6.30342 16.69 6.27342C16.75 6.23342 16.81 6.20342 16.87 6.18342C16.93 6.15342 16.99 6.13342 17.06 6.12342C17.38 6.05342 17.72 6.16342 17.96 6.39342C18.05 6.49342 18.12 6.59342 18.17 6.72342C18.22 6.84342 18.25 6.97342 18.25 7.10342C18.25 7.23342 18.22 7.36342 18.17 7.48342C18.12 7.60342 18.05 7.71342 17.96 7.81342C17.86 7.90342 17.75 7.97342 17.63 8.02342C17.51 8.07342 17.38 8.10342 17.25 8.10342Z" fill="currentColor"/>
</svg>
