<svg width="20" height="48" viewBox="0 0 20 48" fill="none" xmlns="http://www.w3.org/2000/svg">
<path d="M10 20V29" stroke="white" stroke-dasharray="2 2"/>
<path d="M10 0.5C15.2467 0.5 19.5 4.7533 19.5 10C19.5 15.2467 15.2467 19.5 10 19.5C4.7533 19.5 0.5 15.2467 0.5 10C0.5 4.7533 4.7533 0.5 10 0.5Z" stroke="#5E60E5"/>
<path d="M10 2.5C14.1421 2.5 17.5 5.85786 17.5 10C17.5 14.1421 14.1421 17.5 10 17.5C5.85786 17.5 2.5 14.1421 2.5 10C2.5 5.85786 5.85786 2.5 10 2.5Z" fill="#5E60E5"/>
<path d="M10 2.5C14.1421 2.5 17.5 5.85786 17.5 10C17.5 14.1421 14.1421 17.5 10 17.5C5.85786 17.5 2.5 14.1421 2.5 10C2.5 5.85786 5.85786 2.5 10 2.5Z" stroke="#5E60E5"/>
<path d="M10.0004 11.0852C8.93543 11.0852 8.06543 10.2202 8.06543 9.15021C8.06543 8.08021 8.93543 7.22021 10.0004 7.22021C11.0654 7.22021 11.9354 8.08521 11.9354 9.15521C11.9354 10.2252 11.0654 11.0852 10.0004 11.0852ZM10.0004 7.97021C9.35043 7.97021 8.81543 8.50021 8.81543 9.15521C8.81543 9.81021 9.34543 10.3402 10.0004 10.3402C10.6554 10.3402 11.1854 9.81021 11.1854 9.15521C11.1854 8.50021 10.6504 7.97021 10.0004 7.97021Z" fill="white"/>
<path d="M9.99984 15.38C9.25984 15.38 8.51484 15.1 7.93484 14.545C6.45984 13.125 4.82984 10.86 5.44484 8.165C5.99984 5.72 8.13484 4.625 9.99984 4.625C9.99984 4.625 9.99984 4.625 10.0048 4.625C11.8698 4.625 14.0048 5.72 14.5598 8.17C15.1698 10.865 13.5398 13.125 12.0648 14.545C11.4848 15.1 10.7398 15.38 9.99984 15.38ZM9.99984 5.375C8.54484 5.375 6.67484 6.15 6.17984 8.33C5.63984 10.685 7.11984 12.715 8.45984 14C9.32484 14.835 10.6798 14.835 11.5448 14C12.8798 12.715 14.3598 10.685 13.8298 8.33C13.3298 6.15 11.4548 5.375 9.99984 5.375Z" fill="white"/>
<path fill-rule="evenodd" clip-rule="evenodd" d="M10.0006 34.6167C8.90987 34.6167 8.02563 35.5009 8.02563 36.5917C8.02563 37.6825 8.90987 38.5667 10.0006 38.5667C11.0914 38.5667 11.9756 37.6825 11.9756 36.5917C11.9756 35.5009 11.0914 34.6167 10.0006 34.6167ZM6.77563 36.5917C6.77563 34.8106 8.21952 33.3667 10.0006 33.3667C11.7818 33.3667 13.2256 34.8106 13.2256 36.5917C13.2256 38.3728 11.7818 39.8167 10.0006 39.8167C8.21952 39.8167 6.77563 38.3728 6.77563 36.5917Z" fill="white"/>
<path fill-rule="evenodd" clip-rule="evenodd" d="M10.0034 30.2915C7.15608 30.2896 4.37119 31.9418 3.62684 35.2131C2.74596 39.1049 5.15739 42.48 7.42582 44.6663C8.8679 46.0507 11.1346 46.049 12.5666 44.6668L12.5678 44.6657C14.8444 42.4795 17.2554 39.1127 16.3744 35.2212L16.3744 35.2211C15.634 31.9496 12.8508 30.2934 10.0034 30.2915ZM17.5936 34.9452C16.7007 31.0001 13.3213 29.0437 10.0042 29.0415C6.68701 29.0393 3.30533 30.9911 2.40789 34.9362L2.40775 34.9368C1.37216 39.5114 4.22715 43.3195 6.55861 45.5665L6.5594 45.5673C8.48389 47.4156 11.5166 47.4172 13.4344 45.5665C15.7743 43.3193 18.6292 39.5198 17.5936 34.9452Z" fill="white"/>
</svg>
