<svg width="16" height="16" viewBox="0 0 16 16" fill="none" xmlns="http://www.w3.org/2000/svg">
<path d="M8.00008 1.44092C5.20008 1.44092 2.66675 3.58758 2.66675 6.90758C2.66675 9.02758 4.30008 11.5209 7.56008 14.3943C7.81341 14.6143 8.19341 14.6143 8.44675 14.3943C11.7001 11.5209 13.3334 9.02758 13.3334 6.90758C13.3334 3.58758 10.8001 1.44092 8.00008 1.44092ZM8.00008 8.10758C7.26675 8.10758 6.66675 7.50759 6.66675 6.77425C6.66675 6.04092 7.26675 5.44092 8.00008 5.44092C8.73341 5.44092 9.33341 6.04092 9.33341 6.77425C9.33341 7.50759 8.73341 8.10758 8.00008 8.10758Z" fill="currentColor"/>
</svg>
