<?xml version="1.0" encoding="UTF-8"?>
<svg id="Layer_1" data-name="Layer 1" xmlns="http://www.w3.org/2000/svg" viewBox="0 0 635.06 587.47">
  <path d="M535.26,458.76c26.41-2,46.34,22.9,36.38,48.23-15.11,38.43-76.42,20.12-61.19-27.57,1.16-3.63,4.68-6.38,4.42-10.26-.42-6.32-11.19-18.94-12.11-26.33-36.62,27.55-31.86,86.27,9,107.36,61.05,31.51,121.81-44.52,77.79-97.97-16.19-19.65-37.73-25.4-62.59-24.84l-13.43-31.62c19.07-4.05,39.37-4.14,58.13,1.71,5.98,1.87,26.76,11.36,30.06,15.75,1.09,1.45-2.28,2.33-1.53,4.05s9.24,8.72,11.5,11.47c35.42,43.21,30.67,106.03-14.87,139.74-73.72,54.59-171-17.46-145.14-103.45l-4.04-1.34c4.12-13.35,10.82-25.92,20.12-36.38,3.11-3.5,16.11-13.66,16.9-15.49.93-2.14.24-5.05-1.41-6.68-2.94.11-37.83,29.85-42.37,34.3-3.01,2.95-16.77,17.33-17.8,19.87-1.84,4.53-1.17,12.73-1,17.8.53,16.16,5.61,37.24,5.14,52.51-.4,13.03-14.31,15.42-24.61,12.68-52.33-4.16-114.13,5.85-165.36-.08-11.23-1.3-19.42-6.52-22.77-17.58-.83-2.73-.57-8.15-1.1-8.99-.56-.9-17.36-6.25-19.98-6.92-32.88,98.94-173.79,91.72-191.99-14.49-15.7-91.63,102.38-156.89,165.11-87.09,3.57,3.97,9.43,14.68,13.02,16.57,4.29,2.26,17.74,5.14,23.22,6.38,10.86,2.46,22.13,3.48,32.98,6.03l.66-2.68c-14.73-11.18-28.06-24.69-43.11-35.58-47.93-34.68-110.3-67.37-154.48-105.12-4.04-3.46-16.75-15.79-4.83-16.82,3.73-.32,16.73,1.09,21.52,1.48,27.58,2.26,55.16,7.54,82.76,10.05,9.46,1.84,12.75,12.04,18.78,18.89,14.37,16.33,26,20.15,46.86,24.43,9.03,1.85,33.21,6.54,41.15,5.8,10.74-1.01,29.02-16.27,38.57-22.07,10.47-6.36,23.44-15.53,35.16-18.65,35.68-9.51,75.48,11.6,109.13,21.68,14.32-10.78,29.87-20.16,46.6-26.7-9.4-10.97-42.26-24.16-35.98-41.96,4.07-11.57,9.93-6.76,18.06-2.63,38.5,19.53,93.96,61.06,107.74,103.43,9.03,27.75-28.13,22.12-42.73,27.95-2.72,1.09-21.02,13.3-21.34,14.96,9.33,23.31,24.11,43.69,35,66.19ZM151.7,444.17c-40.36-67.31-142.43-13.01-112.8,59.68,23.65,58.03,104.76,53.13,122.22-5.85-5.73.19-24.98-10.39-28.71-9.29-2.06.61-7.09,10.8-9.58,13.36-25.1,25.8-66.3-1.62-51.68-35.54,5.99-13.9,14.72-12.58,23.44-19.6,2.49-2.01,3.43-6.64,5.41-9.39,13.25-18.37,35.59,4.85,51.7,6.63Z"/>
  <path d="M445.73,220.9c-20.37-9.18-43.06-4.64-51.76,17.49-5.77,14.67-2.85,24.57,4.69,37.63-3.8-.11-6.44,3.9-9.37,4.82-5.77,1.81-11.69-1.91-17.26-3.06-24.83-5.13-51.99-11.68-76.96-5.11-19.85,5.22-37.58,19.12-54.48,30.23-19.72-35.89-45.41-70.2-61.42-108C137.24,95.9,226.18-7.87,329.22.47c85.95,6.96,144.64,77.08,136.53,163.08-1.89,19.99-14.2,38.61-20.02,57.35ZM312.3,65.27c-99.54,8.25-80.97,163.18,20.54,142.93,88.27-17.61,67.38-150.22-20.54-142.93Z"/>
</svg>