<svg width="20" height="20" viewBox="0 0 20 20" fill="none" xmlns="http://www.w3.org/2000/svg">
<path d="M14.5341 12.8085C14.3757 12.8085 14.2174 12.7502 14.0924 12.6252C13.8507 12.3835 13.8507 11.9835 14.0924 11.7419L15.7841 10.0502L14.0924 8.35853C13.8507 8.11686 13.8507 7.71686 14.0924 7.4752C14.334 7.23353 14.734 7.23353 14.9757 7.4752L17.1091 9.60853C17.3507 9.85019 17.3507 10.2502 17.1091 10.4919L14.9757 12.6252C14.8507 12.7502 14.6924 12.8085 14.5341 12.8085Z" fill="white"/>
<path d="M16.6083 10.6748H8.1333C7.79163 10.6748 7.5083 10.3915 7.5083 10.0498C7.5083 9.70814 7.79163 9.4248 8.1333 9.4248H16.6083C16.95 9.4248 17.2333 9.70814 17.2333 10.0498C17.2333 10.3915 16.95 10.6748 16.6083 10.6748Z" fill="white"/>
<path d="M9.79997 17.2913C5.5083 17.2913 2.5083 14.2913 2.5083 9.99967C2.5083 5.70801 5.5083 2.70801 9.79997 2.70801C10.1416 2.70801 10.425 2.99134 10.425 3.33301C10.425 3.67467 10.1416 3.95801 9.79997 3.95801C6.24163 3.95801 3.7583 6.44134 3.7583 9.99967C3.7583 13.558 6.24163 16.0413 9.79997 16.0413C10.1416 16.0413 10.425 16.3247 10.425 16.6663C10.425 17.008 10.1416 17.2913 9.79997 17.2913Z" fill="white"/>
</svg>
