<svg width="24" height="24" viewBox="0 0 24 24" fill="none" xmlns="http://www.w3.org/2000/svg">
<path fill-rule="evenodd" clip-rule="evenodd" d="M8.54741 2.58897C8.97644 2.578 9.44857 2.65 9.84938 2.84663L9.85397 2.84888L15.1095 5.47167C15.233 5.53458 15.445 5.58272 15.6997 5.57529C15.9538 5.56787 16.1658 5.50756 16.288 5.43819C16.2879 5.43825 16.2881 5.43813 16.288 5.43819L18.6361 4.09928C18.6358 4.09943 18.6364 4.09913 18.6361 4.09928C19.5971 3.54874 20.6434 3.41154 21.4957 3.90638C22.3479 4.40123 22.7491 5.37809 22.7491 6.48997V16.22C22.7491 16.7061 22.5797 17.1909 22.3481 17.5879C22.1164 17.9852 21.7797 18.3677 21.3662 18.6082L21.3618 18.6108L17.0318 21.0908L17.0298 21.0919C16.6389 21.3142 16.1691 21.41 15.7407 21.421C15.3117 21.4319 14.8396 21.3599 14.4387 21.1633L14.4331 21.1606L9.17861 18.5283C9.05513 18.4654 8.84309 18.4172 8.58845 18.4247C8.33437 18.4321 8.12232 18.4924 8.00013 18.5617C8.00001 18.5618 8.00024 18.5617 8.00013 18.5617L5.65202 19.9007C5.65178 19.9008 5.65226 19.9005 5.65202 19.9007C4.69105 20.4512 3.64471 20.5884 2.79246 20.0936C1.94022 19.5987 1.53906 18.6218 1.53906 17.51V7.77997C1.53906 7.30032 1.70495 6.81843 1.93576 6.42162C2.16679 6.02443 2.50492 5.64015 2.92631 5.39916L7.25833 2.918C7.6492 2.69574 8.11904 2.59991 8.54741 2.58897ZM7.99979 4.22194C7.99952 4.22209 8.00006 4.22178 7.99979 4.22194L3.67181 6.70078C3.53351 6.77982 3.36621 6.94571 3.23236 7.17582C3.09818 7.40651 3.03906 7.62962 3.03906 7.77997V17.51C3.03906 18.2981 3.31291 18.6612 3.54566 18.7964C3.77821 18.9314 4.22728 18.9884 4.9061 18.5993L4.90756 18.5984L7.25756 17.2584C7.64542 17.0379 8.11399 16.9379 8.54467 16.9253C8.97417 16.9128 9.45106 16.9843 9.85704 17.1904C9.85786 17.1909 9.85869 17.1913 9.85951 17.1917L15.0994 19.8166C15.1001 19.817 15.1009 19.8174 15.1017 19.8177C15.2311 19.8806 15.4479 19.928 15.7024 19.9215C15.9585 19.9149 16.1683 19.856 16.2876 19.7884C16.2874 19.7886 16.2878 19.7883 16.2876 19.7884L20.6119 17.3117C20.6125 17.3114 20.6131 17.311 20.6137 17.3107C20.7499 17.2308 20.9173 17.0637 21.0525 16.8321C21.1884 16.599 21.2491 16.3738 21.2491 16.22V6.48997C21.2491 5.70185 20.9752 5.33871 20.7425 5.20356C20.5099 5.06854 20.0609 5.01158 19.382 5.40066L19.3806 5.40149L17.0306 6.74149C16.6427 6.96204 16.1741 7.06208 15.7435 7.07465C15.3142 7.08718 14.8375 7.0157 14.4317 6.80981L9.18692 4.19242C9.05751 4.12949 8.84048 4.08197 8.58572 4.08848C8.32967 4.09502 8.11906 4.15439 7.99979 4.22194Z" fill="currentColor"/>
<path fill-rule="evenodd" clip-rule="evenodd" d="M8.55859 3.25C8.97281 3.25 9.30859 3.58579 9.30859 4V17C9.30859 17.4142 8.97281 17.75 8.55859 17.75C8.14438 17.75 7.80859 17.4142 7.80859 17V4C7.80859 3.58579 8.14438 3.25 8.55859 3.25Z" fill="currentColor"/>
<path fill-rule="evenodd" clip-rule="evenodd" d="M15.7285 5.87012C16.1427 5.87012 16.4785 6.2059 16.4785 6.62012V20.0001C16.4785 20.4143 16.1427 20.7501 15.7285 20.7501C15.3143 20.7501 14.9785 20.4143 14.9785 20.0001V6.62012C14.9785 6.2059 15.3143 5.87012 15.7285 5.87012Z" fill="currentColor"/>
</svg>
