<svg width="25" height="24" viewBox="0 0 25 24" fill="none" xmlns="http://www.w3.org/2000/svg">
<path d="M19.9566 9.12035C19.5666 9.12035 19.2566 9.43035 19.2566 9.82035V11.4004C19.2566 14.9404 16.3766 17.8204 12.8366 17.8204C9.2966 17.8204 6.4166 14.9404 6.4166 11.4004V9.81035C6.4166 9.42035 6.1066 9.11035 5.7166 9.11035C5.3266 9.11035 5.0166 9.42035 5.0166 9.81035V11.3904C5.0166 15.4604 8.1466 18.8104 12.1366 19.1704V21.3004C12.1366 21.6904 12.4466 22.0004 12.8366 22.0004C13.2266 22.0004 13.5366 21.6904 13.5366 21.3004V19.1704C17.5166 18.8204 20.6566 15.4604 20.6566 11.3904V9.81035C20.6466 9.43035 20.3366 9.12035 19.9566 9.12035Z" fill="currentColor"/>
<path d="M12.837 2C10.397 2 8.41699 3.98 8.41699 6.42V11.54C8.41699 13.98 10.397 15.96 12.837 15.96C15.277 15.96 17.257 13.98 17.257 11.54V6.42C17.257 3.98 15.277 2 12.837 2ZM14.147 8.95C14.077 9.21 13.847 9.38 13.587 9.38C13.537 9.38 13.487 9.37 13.437 9.36C13.047 9.25 12.637 9.25 12.247 9.36C11.927 9.45 11.617 9.26 11.537 8.95C11.447 8.64 11.637 8.32 11.947 8.24C12.537 8.08 13.157 8.08 13.747 8.24C14.047 8.32 14.227 8.64 14.147 8.95ZM14.677 7.01C14.587 7.25 14.367 7.39 14.127 7.39C14.057 7.39 13.997 7.38 13.927 7.36C13.227 7.1 12.447 7.1 11.747 7.36C11.447 7.47 11.107 7.31 10.997 7.01C10.887 6.71 11.047 6.37 11.347 6.27C12.307 5.92 13.367 5.92 14.327 6.27C14.627 6.38 14.787 6.71 14.677 7.01Z" fill="currentColor"/>
</svg>
