<svg width="25" height="25" viewBox="0 0 25 25" fill="none" xmlns="http://www.w3.org/2000/svg">
<path fill-rule="evenodd" clip-rule="evenodd" d="M10.4822 2.17281C11.1047 2.75816 10.9613 3.65164 10.6648 4.3324L10.6643 4.33357C10.2151 5.36048 9.96804 6.48634 9.9772 7.67718L9.97722 7.67985C9.99551 12.0993 13.6691 15.8696 18.1679 16.0536L18.1684 16.0536C18.8327 16.0813 19.4676 16.0352 20.0841 15.9249C20.4889 15.8511 20.8829 15.8387 21.2355 15.921C21.595 16.0048 21.9521 16.1998 22.1734 16.5619C22.3938 16.9224 22.4053 17.3275 22.3208 17.6829C22.2376 18.033 22.0539 18.3787 21.8116 18.707C19.6875 21.6132 16.1513 23.4534 12.2047 23.2822L12.2043 23.2822C6.60356 23.0359 1.91682 18.5559 1.52911 13.0161C1.17487 8.10537 4.08937 3.82846 8.32579 2.04189C9.0056 1.75395 9.88309 1.60943 10.4822 2.17281ZM9.41738 3.28832C9.31729 3.29108 9.14914 3.32205 8.90999 3.42345L8.90866 3.42402C5.22532 4.97734 2.71991 8.68004 3.02527 12.9089L3.0254 12.9107C3.35811 17.6703 7.41092 21.5697 12.2697 21.7837M9.4977 3.29446C9.49767 3.2945 9.49684 3.29428 9.49532 3.29368C9.49698 3.29413 9.49774 3.29443 9.4977 3.29446ZM9.41738 3.28832C9.41143 3.37625 9.38131 3.52275 9.28988 3.73285C8.75946 4.94542 8.46659 6.27893 8.47723 7.68739C8.49966 12.9274 12.8258 17.3363 18.1066 17.5523C18.8818 17.5846 19.6264 17.5307 20.3494 17.4012L20.3519 17.4008C20.5913 17.3571 20.7535 17.3591 20.8511 17.3736C20.8211 17.4697 20.7505 17.619 20.604 17.8173L20.6016 17.8205C18.7657 20.3333 15.7027 21.9324 12.2702 21.7837M20.9425 17.397C20.9424 17.397 20.942 17.3967 20.9411 17.3963L20.9425 17.397ZM20.8698 17.283C20.8697 17.2816 20.8697 17.2809 20.8697 17.2809C20.8697 17.2809 20.8698 17.2816 20.8698 17.283Z" fill="currentColor"/>
</svg>
