<svg width="25" height="25" viewBox="0 0 25 25" fill="none" xmlns="http://www.w3.org/2000/svg">
<path d="M12.2188 2.54297C6.69875 2.54297 2.21875 7.02297 2.21875 12.543C2.21875 18.063 6.69875 22.543 12.2188 22.543C17.7388 22.543 22.2188 18.063 22.2188 12.543C22.2188 7.02297 17.7488 2.54297 12.2188 2.54297ZM10.9688 15.573C10.9688 16.053 10.7688 16.243 10.2587 16.243H8.95875C8.44875 16.243 8.24875 16.053 8.24875 15.573V9.51297C8.24875 9.03297 8.44875 8.84297 8.95875 8.84297H10.2487C10.7587 8.84297 10.9587 9.03297 10.9587 9.51297V15.573H10.9688ZM16.2487 15.573C16.2487 16.053 16.0487 16.243 15.5387 16.243H14.2487C13.7387 16.243 13.5387 16.053 13.5387 15.573V9.51297C13.5387 9.03297 13.7387 8.84297 14.2487 8.84297H15.5387C16.0487 8.84297 16.2487 9.03297 16.2487 9.51297V15.573Z" fill="currentColor"/>
</svg>
