<svg width="20" height="20" viewBox="0 0 20 20" fill="none" xmlns="http://www.w3.org/2000/svg">
<path d="M15.0004 6.59148C14.9754 6.59148 14.9588 6.59148 14.9338 6.59148H14.8921C13.3171 6.54148 12.1421 5.32481 12.1421 3.82481C12.1421 2.29147 13.3921 1.0498 14.9171 1.0498C16.4421 1.0498 17.6921 2.29981 17.6921 3.82481C17.6838 5.33314 16.5088 6.54981 15.0088 6.59981C15.0088 6.59147 15.0088 6.59148 15.0004 6.59148ZM14.9171 2.29148C14.0754 2.29148 13.3921 2.97481 13.3921 3.81648C13.3921 4.64148 14.0338 5.30815 14.8588 5.34148C14.8671 5.33315 14.9338 5.33315 15.0088 5.34148C15.8171 5.29981 16.4421 4.63314 16.4504 3.81648C16.4504 2.97481 15.7671 2.29148 14.9171 2.29148Z" fill="currentColor"/>
<path d="M15.0087 12.7334C14.6837 12.7334 14.3587 12.7084 14.0337 12.65C13.6921 12.5917 13.4671 12.2667 13.5254 11.925C13.5837 11.5834 13.9087 11.3584 14.2504 11.4167C15.2754 11.5917 16.3587 11.4 17.0837 10.9167C17.4754 10.6584 17.6837 10.3334 17.6837 10.0084C17.6837 9.68337 17.4671 9.3667 17.0837 9.10837C16.3587 8.62504 15.2587 8.43337 14.2254 8.61671C13.8837 8.68337 13.5587 8.45004 13.5004 8.10837C13.4421 7.76671 13.6671 7.44171 14.0087 7.38338C15.3671 7.14171 16.7754 7.40004 17.7754 8.0667C18.5087 8.55837 18.9337 9.25837 18.9337 10.0084C18.9337 10.75 18.5171 11.4584 17.7754 11.9584C17.0171 12.4584 16.0337 12.7334 15.0087 12.7334Z" fill="currentColor"/>
<path d="M4.97539 6.59151C4.96706 6.59151 4.95872 6.59151 4.95872 6.59151C3.45872 6.54151 2.28372 5.32483 2.27539 3.82483C2.27539 2.2915 3.52539 1.0415 5.05039 1.0415C6.57539 1.0415 7.82539 2.29151 7.82539 3.81651C7.82539 5.32484 6.65039 6.54151 5.15039 6.59151L4.97539 5.96651L5.03373 6.59151C5.01706 6.59151 4.99206 6.59151 4.97539 6.59151ZM5.05872 5.34151C5.10872 5.34151 5.15039 5.3415 5.20039 5.34984C5.94206 5.3165 6.59206 4.64983 6.59206 3.82483C6.59206 2.98317 5.90873 2.29983 5.06706 2.29983C4.22539 2.29983 3.54206 2.98317 3.54206 3.82483C3.54206 4.6415 4.17539 5.29984 4.98372 5.34984C4.99206 5.3415 5.02539 5.34151 5.05872 5.34151Z" fill="currentColor"/>
<path d="M4.9665 12.7334C3.9415 12.7334 2.95817 12.4584 2.19984 11.9584C1.4665 11.4667 1.0415 10.7584 1.0415 10.0084C1.0415 9.26671 1.4665 8.55837 2.19984 8.0667C3.19984 7.40004 4.60817 7.14171 5.9665 7.38338C6.30817 7.44171 6.53317 7.76671 6.47484 8.10837C6.4165 8.45004 6.09151 8.68337 5.74984 8.61671C4.71651 8.43337 3.62484 8.62504 2.89151 9.10837C2.49984 9.3667 2.2915 9.68337 2.2915 10.0084C2.2915 10.3334 2.50817 10.6584 2.89151 10.9167C3.61651 11.4 4.69984 11.5917 5.72484 11.4167C6.0665 11.3584 6.39151 11.5917 6.44984 11.925C6.50817 12.2667 6.28317 12.5917 5.9415 12.65C5.61651 12.7084 5.2915 12.7334 4.9665 12.7334Z" fill="currentColor"/>
<path d="M10.0004 12.8166C9.97542 12.8166 9.95876 12.8166 9.93376 12.8166H9.89209C8.31709 12.7666 7.14209 11.5499 7.14209 10.0499C7.14209 8.51657 8.39209 7.2749 9.91709 7.2749C11.4421 7.2749 12.6921 8.5249 12.6921 10.0499C12.6838 11.5582 11.5088 12.7749 10.0088 12.8249C10.0088 12.8166 10.0088 12.8166 10.0004 12.8166ZM9.91709 8.51657C9.07542 8.51657 8.39209 9.19991 8.39209 10.0416C8.39209 10.8666 9.03376 11.5332 9.85876 11.5666C9.86709 11.5582 9.93376 11.5582 10.0088 11.5666C10.8171 11.5249 11.4421 10.8582 11.4504 10.0416C11.4504 9.20824 10.7671 8.51657 9.91709 8.51657Z" fill="currentColor"/>
<path d="M9.99925 18.9666C8.99925 18.9666 7.99925 18.7083 7.22425 18.1833C6.49092 17.6916 6.06592 16.9916 6.06592 16.2416C6.06592 15.4999 6.48258 14.7833 7.22425 14.2916C8.78258 13.2583 11.2243 13.2583 12.7743 14.2916C13.5076 14.7833 13.9326 15.4833 13.9326 16.2333C13.9326 16.9749 13.5159 17.6916 12.7743 18.1833C11.9993 18.6999 10.9993 18.9666 9.99925 18.9666ZM7.91592 15.3416C7.52425 15.5999 7.31592 15.9249 7.31592 16.2499C7.31592 16.5749 7.53259 16.8916 7.91592 17.1499C9.04092 17.9083 10.9493 17.9083 12.0743 17.1499C12.4659 16.8916 12.6743 16.5666 12.6743 16.2416C12.6743 15.9166 12.4576 15.5999 12.0743 15.3416C10.9576 14.5833 9.04925 14.5916 7.91592 15.3416Z" fill="currentColor"/>
</svg>
