<svg width="20" height="20" viewBox="0 0 20 20" fill="none" xmlns="http://www.w3.org/2000/svg">
<path d="M4.25939 3.93985C4.9353 2.95741 6.28592 3.24315 6.91303 4.25751L7.79913 5.69082C8.0618 6.11569 7.99805 6.66567 7.64519 7.01901L7.29693 7.36773C6.87697 7.78825 6.87697 8.47004 7.29693 8.89056L10.9088 12.5073C11.3288 12.9278 12.0097 12.9278 12.4296 12.5073L12.7702 12.1663C13.1266 11.8094 13.6827 11.7483 14.1079 12.0192L15.7626 13.0736C16.7589 13.7085 17.0347 15.0484 16.0653 15.7238C14.3499 16.919 11.1885 17.7365 6.72663 13.2687C2.28392 8.82007 3.07424 5.66251 4.25939 3.93985Z" stroke="white" stroke-linecap="round" stroke-linejoin="round"/>
</svg>
