<svg width="25" height="25" viewBox="0 0 25 25" fill="none" xmlns="http://www.w3.org/2000/svg">
<path d="M12.2188 2.54297C6.69875 2.54297 2.21875 7.02297 2.21875 12.543C2.21875 18.063 6.69875 22.543 12.2188 22.543C17.7388 22.543 22.2188 18.063 22.2188 12.543C22.2188 7.02297 17.7488 2.54297 12.2188 2.54297ZM15.2188 14.773L12.3187 16.443C11.9587 16.653 11.5588 16.753 11.1687 16.753C10.7688 16.753 10.3787 16.653 10.0188 16.443C9.29875 16.023 8.86875 15.283 8.86875 14.443V11.093C8.86875 10.263 9.29875 9.51297 10.0188 9.09297C10.7388 8.67297 11.5987 8.67297 12.3287 9.09297L15.2287 10.763C15.9487 11.183 16.3787 11.923 16.3787 12.763C16.3787 13.603 15.9487 14.353 15.2188 14.773Z" fill="currentColor"/>
</svg>
