<svg width="25" height="25" viewBox="0 0 25 25" fill="none" xmlns="http://www.w3.org/2000/svg">
<path fill-rule="evenodd" clip-rule="evenodd" d="M12.25 3.29297C9.90279 3.29297 8 5.19576 8 7.54297C8 9.89018 9.90279 11.793 12.25 11.793C14.5972 11.793 16.5 9.89018 16.5 7.54297C16.5 5.19576 14.5972 3.29297 12.25 3.29297ZM6.5 7.54297C6.5 4.36733 9.07436 1.79297 12.25 1.79297C15.4256 1.79297 18 4.36733 18 7.54297C18 10.7186 15.4256 13.293 12.25 13.293C9.07436 13.293 6.5 10.7186 6.5 7.54297Z" fill="currentColor"/>
<path fill-rule="evenodd" clip-rule="evenodd" d="M2.91016 22.543C2.91016 18.1221 7.24728 14.793 12.2502 14.793C17.253 14.793 21.5901 18.1221 21.5901 22.543C21.5901 22.9572 21.2544 23.293 20.8401 23.293C20.4259 23.293 20.0901 22.9572 20.0901 22.543C20.0901 19.2238 16.7273 16.293 12.2502 16.293C7.77303 16.293 4.41016 19.2238 4.41016 22.543C4.41016 22.9572 4.07437 23.293 3.66016 23.293C3.24594 23.293 2.91016 22.9572 2.91016 22.543Z" fill="currentColor"/>
</svg>
