<svg width="25" height="25" viewBox="0 0 25 25" fill="none" xmlns="http://www.w3.org/2000/svg">
<path fill-rule="evenodd" clip-rule="evenodd" d="M11.75 3.29297C6.91751 3.29297 3 7.21048 3 12.043C3 16.8755 6.91751 20.793 11.75 20.793C16.5825 20.793 20.5 16.8755 20.5 12.043C20.5 7.21048 16.5825 3.29297 11.75 3.29297ZM1.5 12.043C1.5 6.38205 6.08908 1.79297 11.75 1.79297C17.4109 1.79297 22 6.38205 22 12.043C22 17.7039 17.4109 22.293 11.75 22.293C6.08908 22.293 1.5 17.7039 1.5 12.043Z" fill="currentColor"/>
<path fill-rule="evenodd" clip-rule="evenodd" d="M19.7197 20.0126C20.0126 19.7197 20.4874 19.7197 20.7803 20.0126L22.7803 22.0126C23.0732 22.3055 23.0732 22.7804 22.7803 23.0733C22.4874 23.3662 22.0126 23.3662 21.7197 23.0733L19.7197 21.0733C19.4268 20.7804 19.4268 20.3055 19.7197 20.0126Z" fill="currentColor"/>
</svg>
