<svg width="24" height="24" viewBox="0 0 24 24" fill="none" xmlns="http://www.w3.org/2000/svg">
<path fill-rule="evenodd" clip-rule="evenodd" d="M19.5702 4.42523C19.0284 3.88258 17.9162 3.60536 16.1269 4.2018L7.63761 7.03155C7.63745 7.03161 7.63776 7.0315 7.63761 7.03155C6.25826 7.49299 5.28188 8.00896 4.66558 8.51827C4.04661 9.02979 3.86719 9.46508 3.86719 9.78404C3.86719 10.1028 4.04637 10.5373 4.66498 11.0474C5.2811 11.5555 6.25694 12.0696 7.63648 12.5287L10.1569 13.3688C10.3808 13.4434 10.5565 13.6192 10.6312 13.8431L11.4712 16.3631C11.9302 17.7424 12.4449 18.7185 12.9536 19.3346C13.4644 19.9532 13.8999 20.1328 14.2197 20.1328C14.5395 20.1328 14.975 19.9532 15.4857 19.3346C15.9945 18.7185 16.5091 17.7428 16.9681 16.3635L19.7976 7.8748C19.7975 7.87506 19.7977 7.87455 19.7976 7.8748C20.3892 6.08526 20.1129 4.96876 19.5702 4.42523ZM20.6317 3.36536C21.7614 4.49675 21.8898 6.32577 21.2218 8.34578L21.2212 8.34746L18.3913 16.8371C18.3913 16.8372 18.3914 16.837 18.3913 16.8371C17.9003 18.3126 17.3124 19.4784 16.6424 20.2897C15.9744 21.0987 15.1549 21.6328 14.2197 21.6328C13.2845 21.6328 12.465 21.0987 11.797 20.2897C11.127 19.4784 10.5392 18.313 10.0482 16.8375L9.32676 14.6732L7.16289 13.9519C7.16277 13.9519 7.16301 13.952 7.16289 13.9519C5.68761 13.461 4.52195 12.8737 3.71065 12.2047C2.90175 11.5376 2.36719 10.7191 2.36719 9.78404C2.36719 8.84926 2.90151 8.03017 3.71004 7.362C4.52117 6.69169 5.68637 6.10255 7.16177 5.60903L15.6525 2.77878C17.6732 2.10523 19.501 2.23301 20.6317 3.36536Z" fill="currentColor"/>
<path fill-rule="evenodd" clip-rule="evenodd" d="M14.219 9.52948C14.5123 9.82196 14.5129 10.2968 14.2204 10.5901L10.6404 14.1801C10.348 14.4734 9.87309 14.4741 9.57979 14.1816C9.28648 13.8891 9.28582 13.4143 9.57831 13.121L13.1583 9.53096C13.4508 9.23766 13.9257 9.23699 14.219 9.52948Z" fill="currentColor"/>
</svg>
