<svg width="25" height="25" viewBox="0 0 25 25" fill="none" xmlns="http://www.w3.org/2000/svg">
<path d="M14.4728 22.2333C13.2928 22.2333 11.6228 21.4033 10.3028 17.4333L9.58281 15.2733L7.42281 14.5533C3.46281 13.2333 2.63281 11.5633 2.63281 10.3833C2.63281 9.21334 3.46281 7.53334 7.42281 6.20334L15.9128 3.37334C18.0328 2.66334 19.8028 2.87334 20.8928 3.95334C21.9828 5.03334 22.1928 6.81334 21.4828 8.93334L18.6528 17.4233C17.3228 21.4033 15.6528 22.2333 14.4728 22.2333ZM7.89281 7.63334C5.11281 8.56334 4.12281 9.66334 4.12281 10.3833C4.12281 11.1033 5.11281 12.2033 7.89281 13.1233L10.4128 13.9633C10.6328 14.0333 10.8128 14.2133 10.8828 14.4333L11.7228 16.9533C12.6428 19.7333 13.7528 20.7233 14.4728 20.7233C15.1928 20.7233 16.2928 19.7333 17.2228 16.9533L20.0528 8.46334C20.5628 6.92334 20.4728 5.66334 19.8228 5.01334C19.1728 4.36334 17.9128 4.28334 16.3828 4.79334L7.89281 7.63334Z" fill="currentColor"/>
<path d="M10.3608 15.0035C10.1708 15.0035 9.98078 14.9335 9.83078 14.7835C9.54078 14.4935 9.54078 14.0135 9.83078 13.7235L13.4108 10.1335C13.7008 9.84352 14.1808 9.84352 14.4708 10.1335C14.7608 10.4235 14.7608 10.9035 14.4708 11.1935L10.8908 14.7835C10.7508 14.9335 10.5508 15.0035 10.3608 15.0035Z" fill="currentColor"/>
</svg>
