<svg width="117" height="35" viewBox="0 0 117 35" fill="none" xmlns="http://www.w3.org/2000/svg">
<path d="M86 0.0509064H116.5C116.5 0.0509064 109.556 0.840419 102 5.55091C95.7552 9.44423 85 21.5508 85 21.5508C85 21.5508 79.9628 26.949 74 30.0509C69.0399 32.6312 62.9486 34.0509 59 34.0509C37.5 34.0509 28.3585 15.9685 17 7.55091C9.00753 1.62777 3.99064 0.299555 1.62118 0.0509064H0C0 0.0509064 0.529704 -0.063633 1.62118 0.0509064H31.5C31.5 0.0509064 32 27.0509 59 27.0509C84.0043 27.0509 86 0.0509064 86 0.0509064Z" fill="#131420" fill-opacity="0.09"/>
</svg>
