<svg width="25" height="24" viewBox="0 0 25 24" fill="none" xmlns="http://www.w3.org/2000/svg">
<g clip-path="url(#clip0_16087_12200)">
<path d="M11.75 7.85999H2.5V16.19C2.5 16.25 2.5 16.31 2.51 16.36H11.75V7.85999Z" fill="currentColor"/>
<path d="M8.18945 6.36H11.7495V2H8.21945V6.24C8.21945 6.28 8.19945 6.32 8.18945 6.36Z" fill="currentColor"/>
<path d="M6.72086 6.23991V2.15991C4.50086 2.61991 3.05086 4.09991 2.63086 6.35991H6.74086C6.73086 6.31991 6.72086 6.27991 6.72086 6.23991Z" fill="currentColor"/>
<path d="M16.72 2H13.25V6.36H16.72V2Z" fill="currentColor"/>
<path d="M18.2109 6.3599H22.3709C21.9509 4.0799 20.4809 2.5899 18.2209 2.1499V6.3299C18.2209 6.3399 18.2109 6.3499 18.2109 6.3599Z" fill="currentColor"/>
<path d="M18.2207 21.8501C20.4107 21.4201 21.8507 20.0201 22.3207 17.8601H18.2207V21.8501Z" fill="currentColor"/>
<path d="M16.72 17.86H13.25V22H16.72V17.86Z" fill="currentColor"/>
<path d="M13.25 16.36H22.49C22.5 16.31 22.5 16.25 22.5 16.19V7.85999H13.25V16.36Z" fill="currentColor"/>
<path d="M11.7507 17.8601H8.2207V22.0001H11.7507V17.8601Z" fill="currentColor"/>
<path d="M2.67969 17.8601C3.14969 20.0001 4.56969 21.4001 6.71969 21.8401V17.8601H2.67969Z" fill="currentColor"/>
</g>
<defs>
<clipPath id="clip0_16087_12200">
<rect width="24" height="24" fill="white" transform="translate(0.5)"/>
</clipPath>
</defs>
</svg>
