<svg width="24" height="24" viewBox="0 0 24 24" fill="none" xmlns="http://www.w3.org/2000/svg">
<path fill-rule="evenodd" clip-rule="evenodd" d="M3.09467 3.09467C4.42914 1.7602 6.42603 1.25 9 1.25H15C17.574 1.25 19.5709 1.7602 20.9053 3.09467C22.2398 4.42914 22.75 6.42603 22.75 9V15C22.75 17.574 22.2398 19.5709 20.9053 20.9053C19.5709 22.2398 17.574 22.75 15 22.75H9C6.42603 22.75 4.42914 22.2398 3.09467 20.9053C1.7602 19.5709 1.25 17.574 1.25 15V9C1.25 6.42603 1.7602 4.42914 3.09467 3.09467ZM4.15533 4.15533C3.2398 5.07086 2.75 6.57397 2.75 9V15C2.75 17.426 3.2398 18.9291 4.15533 19.8447C5.07086 20.7602 6.57397 21.25 9 21.25H15C17.426 21.25 18.9291 20.7602 19.8447 19.8447C20.7602 18.9291 21.25 17.426 21.25 15V9C21.25 6.57397 20.7602 5.07086 19.8447 4.15533C18.9291 3.2398 17.426 2.75 15 2.75H9C6.57397 2.75 5.07086 3.2398 4.15533 4.15533Z" fill="currentColor"/>
<path fill-rule="evenodd" clip-rule="evenodd" d="M1.76953 17.1101C1.76953 16.6959 2.10532 16.3601 2.51953 16.3601H21.4795C21.8937 16.3601 22.2295 16.6959 22.2295 17.1101C22.2295 17.5243 21.8937 17.8601 21.4795 17.8601H2.51953C2.10532 17.8601 1.76953 17.5243 1.76953 17.1101Z" fill="currentColor"/>
<path fill-rule="evenodd" clip-rule="evenodd" d="M1.76953 7.11011C1.76953 6.69589 2.10532 6.36011 2.51953 6.36011H21.4795C21.8937 6.36011 22.2295 6.69589 22.2295 7.11011C22.2295 7.52432 21.8937 7.86011 21.4795 7.86011H2.51953C2.10532 7.86011 1.76953 7.52432 1.76953 7.11011Z" fill="currentColor"/>
<path fill-rule="evenodd" clip-rule="evenodd" d="M6.9707 16.3601C7.38492 16.3601 7.7207 16.6959 7.7207 17.1101V21.4601C7.7207 21.8743 7.38492 22.2101 6.9707 22.2101C6.55649 22.2101 6.2207 21.8743 6.2207 21.4601V17.1101C6.2207 16.6959 6.55649 16.3601 6.9707 16.3601Z" fill="currentColor"/>
<path fill-rule="evenodd" clip-rule="evenodd" d="M12 16.36C12.4142 16.36 12.75 16.6958 12.75 17.11V21.97C12.75 22.3842 12.4142 22.72 12 22.72C11.5858 22.72 11.25 22.3842 11.25 21.97V17.11C11.25 16.6958 11.5858 16.36 12 16.36Z" fill="currentColor"/>
<path fill-rule="evenodd" clip-rule="evenodd" d="M16.9707 16.3601C17.3849 16.3601 17.7207 16.6959 17.7207 17.1101V21.5201C17.7207 21.9343 17.3849 22.2701 16.9707 22.2701C16.5565 22.2701 16.2207 21.9343 16.2207 21.5201V17.1101C16.2207 16.6959 16.5565 16.3601 16.9707 16.3601Z" fill="currentColor"/>
<path fill-rule="evenodd" clip-rule="evenodd" d="M6.9707 1.36011C7.38492 1.36011 7.7207 1.69589 7.7207 2.11011V6.46011C7.7207 6.87432 7.38492 7.21011 6.9707 7.21011C6.55649 7.21011 6.2207 6.87432 6.2207 6.46011V2.11011C6.2207 1.69589 6.55649 1.36011 6.9707 1.36011Z" fill="currentColor"/>
<path fill-rule="evenodd" clip-rule="evenodd" d="M12 1.35999C12.4142 1.35999 12.75 1.69577 12.75 2.10999V6.96999C12.75 7.3842 12.4142 7.71999 12 7.71999C11.5858 7.71999 11.25 7.3842 11.25 6.96999V2.10999C11.25 1.69577 11.5858 1.35999 12 1.35999Z" fill="currentColor"/>
<path fill-rule="evenodd" clip-rule="evenodd" d="M12 6.28003C12.4142 6.28003 12.75 6.61582 12.75 7.03003V18.03C12.75 18.4442 12.4142 18.78 12 18.78C11.5858 18.78 11.25 18.4442 11.25 18.03V7.03003C11.25 6.61582 11.5858 6.28003 12 6.28003Z" fill="currentColor"/>
<path fill-rule="evenodd" clip-rule="evenodd" d="M16.9707 1.36011C17.3849 1.36011 17.7207 1.69589 17.7207 2.11011V6.52011C17.7207 6.93432 17.3849 7.27011 16.9707 7.27011C16.5565 7.27011 16.2207 6.93432 16.2207 6.52011V2.11011C16.2207 1.69589 16.5565 1.36011 16.9707 1.36011Z" fill="currentColor"/>
</svg>
