<svg width="25" height="25" viewBox="0 0 25 25" fill="none" xmlns="http://www.w3.org/2000/svg">
<path fill-rule="evenodd" clip-rule="evenodd" d="M12.25 6.79297C9.07436 6.79297 6.5 9.36733 6.5 12.543C6.5 15.7186 9.07436 18.293 12.25 18.293C15.4256 18.293 18 15.7186 18 12.543C18 9.36733 15.4256 6.79297 12.25 6.79297ZM5 12.543C5 8.5389 8.24594 5.29297 12.25 5.29297C16.2541 5.29297 19.5 8.5389 19.5 12.543C19.5 16.547 16.2541 19.793 12.25 19.793C8.24594 19.793 5 16.547 5 12.543Z" fill="currentColor"/>
<path fill-rule="evenodd" clip-rule="evenodd" d="M12.25 1.54297C12.8023 1.54297 13.25 1.99068 13.25 2.54297V2.62297C13.25 3.17525 12.8023 3.62297 12.25 3.62297C11.6977 3.62297 11.25 3.17525 11.25 2.62297V2.54297C11.25 1.99068 11.6977 1.54297 12.25 1.54297ZM4.40289 4.69586C4.79342 4.30534 5.42658 4.30534 5.81711 4.69586L5.94711 4.82586C6.33763 5.21639 6.33763 5.84955 5.94711 6.24008C5.55658 6.6306 4.92342 6.6306 4.53289 6.24008L4.40289 6.11008C4.01237 5.71955 4.01237 5.08639 4.40289 4.69586ZM20.0971 4.69586C20.4876 5.08638 20.4876 5.71955 20.0971 6.11007L19.9671 6.24007C19.5766 6.6306 18.9434 6.6306 18.5529 6.24008C18.1624 5.84955 18.1624 5.21639 18.5529 4.82586L18.6829 4.69586C19.0734 4.30534 19.7066 4.30534 20.0971 4.69586ZM1.25 12.543C1.25 11.9907 1.69772 11.543 2.25 11.543H2.33C2.88228 11.543 3.33 11.9907 3.33 12.543C3.33 13.0953 2.88228 13.543 2.33 13.543H2.25C1.69772 13.543 1.25 13.0953 1.25 12.543ZM21.17 12.543C21.17 11.9907 21.6177 11.543 22.17 11.543H22.25C22.8023 11.543 23.25 11.9907 23.25 12.543C23.25 13.0953 22.8023 13.543 22.25 13.543H22.17C21.6177 13.543 21.17 13.0953 21.17 12.543ZM5.94711 18.8459C6.33763 19.2364 6.33763 19.8696 5.94711 20.2601L5.81711 20.3901C5.42658 20.7806 4.79342 20.7806 4.40289 20.3901C4.01237 19.9995 4.01237 19.3664 4.40289 18.9759L4.53289 18.8459C4.92342 18.4553 5.55658 18.4553 5.94711 18.8459ZM18.5529 18.8459C18.9434 18.4553 19.5766 18.4553 19.9671 18.8459L20.0971 18.9759C20.4876 19.3664 20.4876 19.9995 20.0971 20.3901C19.7066 20.7806 19.0734 20.7806 18.6829 20.3901L18.5529 20.2601C18.1624 19.8696 18.1624 19.2364 18.5529 18.8459ZM12.25 21.463C12.8023 21.463 13.25 21.9107 13.25 22.463V22.543C13.25 23.0953 12.8023 23.543 12.25 23.543C11.6977 23.543 11.25 23.0953 11.25 22.543V22.463C11.25 21.9107 11.6977 21.463 12.25 21.463Z" fill="currentColor"/>
</svg>
