<svg width="24"  height="24" viewBox="0 0 24 24" fill="none" xmlns="http://www.w3.org/2000/svg">
<path d="M18.5 15.5L12.75 6H11.5M6.22222 15.5002L9.06647 14.3825C10.5326 13.8064 10.6825 11.973 9.17305 11.5226C8.24656 11.2461 7.28703 11.0584 6.39182 10.9706C5.14874 10.8487 4 9.86644 4 8.6174V8.57243L9.5 9.50034C10.8637 8.19496 12.3282 7.87799 13.5392 8.37982C14.169 8.64081 14.901 8.75954 15.4855 8.4087V8.4087C16.152 8.00878 17 8.4889 17 9.26619V10.5M10 14.1571L10.2784 14.5871C10.647 15.1563 11.279 15.5 11.9572 15.5H12.913C12.4783 12.3662 15.9565 9.23204 19 11.023M21 15.5C21 16.8807 19.8807 18 18.5 18C17.1193 18 16 16.8807 16 15.5C16 14.1193 17.1193 13 18.5 13C19.8807 13 21 14.1193 21 15.5ZM8 15.5C8 16.8807 6.88071 18 5.5 18C4.11929 18 3 16.8807 3 15.5C3 14.1193 4.11929 13 5.5 13C6.88071 13 8 14.1193 8 15.5Z" stroke="currentColor" stroke-linecap="round" stroke-linejoin="round"/>
</svg>
