<svg width="24" height="24" viewBox="0 0 24 24" fill="none" xmlns="http://www.w3.org/2000/svg">
<path opacity="0.4" fill-rule="evenodd" clip-rule="evenodd" d="M16.4 7.28704C15.28 7.20704 14.0999 7.16723 12.8699 7.15723H11.3699C10.1599 7.16723 8.9 7.21704 7.6 7.28704H7.58C3.55 7.65704 2.25 9.48704 2.25 14.787C2.25 22.387 5.1 22.387 12 22.387C18.9 22.387 21.75 22.387 21.75 14.787C21.75 9.48704 20.45 7.65704 16.4 7.28704Z" fill="#666666"/>
<path fill-rule="evenodd" clip-rule="evenodd" d="M12.7498 4.16904L14.3888 5.81204C14.5348 5.95904 14.7278 6.03304 14.9198 6.03304C15.1108 6.03304 15.3028 5.95904 15.4488 5.81404C15.7428 5.52104 15.7428 5.04604 15.4508 4.75304L12.5308 1.82504C12.2498 1.54204 11.7498 1.54204 11.4688 1.82504L8.54883 4.75304C8.25683 5.04604 8.25683 5.52104 8.55083 5.81404C8.84483 6.10604 9.31883 6.10604 9.61083 5.81204L11.2498 4.16904V14.4059C11.2498 14.8176 11.5954 15.1482 12.007 15.1482C12.4189 15.1482 12.7498 14.8172 12.7498 14.4053V4.16904Z" fill="#666666"/>
</svg>
