<svg width="16" height="16" viewBox="0 0 16 16" fill="none" xmlns="http://www.w3.org/2000/svg">
<path d="M8.0001 8.49967C5.88676 8.49967 4.16675 6.77967 4.16675 4.66634C4.16675 2.55301 5.88676 0.833008 8.0001 0.833008C10.1134 0.833008 11.8334 2.55301 11.8334 4.66634C11.8334 6.77967 10.1134 8.49967 8.0001 8.49967ZM8.0001 1.83301C6.44009 1.83301 5.16675 3.10634 5.16675 4.66634C5.16675 6.22634 6.44009 7.49967 8.0001 7.49967C9.56011 7.49967 10.8334 6.22634 10.8334 4.66634C10.8334 3.10634 9.56011 1.83301 8.0001 1.83301Z" fill="currentColor"/>
<path d="M13.7268 15.1667C13.4535 15.1667 13.2268 14.94 13.2268 14.6667C13.2268 12.3667 10.8801 10.5 8.00013 10.5C5.12012 10.5 2.77344 12.3667 2.77344 14.6667C2.77344 14.94 2.54677 15.1667 2.27344 15.1667C2.00011 15.1667 1.77344 14.94 1.77344 14.6667C1.77344 11.82 4.56678 9.5 8.00013 9.5C11.4335 9.5 14.2268 11.82 14.2268 14.6667C14.2268 14.94 14.0002 15.1667 13.7268 15.1667Z" fill="currentColor"/>
</svg>
